#!OML:ASF I:\Actors\actors\Patient Classification 1\Patient 1\Session 1\Subject1.ASF
:FULLY-SPECIFIED
:DEGREES
521
root 0.0101674 17.5077 8.20855 10.2587 5.54378 -9.98514
lowerback 2.3682 4.22645 6.54602
upperback -3.45973 6.00888 0.961514
thorax -4.35884 2.78605 -2.98336
lowerneck -16.0757 -6.40502 -6.91198
upperneck 20.3212 -9.66787 10.7754
head 10.0064 -3.84473 3.59416
rclavicle 2.61899e-014 2.54444e-014
rhumerus 43.7668 52.5153 -30.5509
rradius 61.8149
rwrist 9.8409
rhand 17.9471 -37.8513
rfingers 7.12502
rthumb 42.6181 -422.231
lclavicle 2.61899e-014 2.54444e-014
lhumerus 47.872 -56.6233 33.7495
lradius 59.1428
lwrist 10.2969
lhand -6.97284 20.7804
lfingers 7.12502
lthumb 18.8969 49.8824
rfemur -6.3753 23.8244 23.89
rtibia 4.01581
rfoot -15.4642 -30.268
rtoes 6.59514
lfemur -5.17631 -34.3765 -2.78526
ltibia -1.29839
lfoot -11.792 40.9426
ltoes -0.542374
522
root 0.00979487 17.5089 8.20741 10.2303 5.60383 -9.9974
lowerback 2.36718 4.24119 6.54995
upperback -3.41883 6.02698 0.975686
thorax -4.3147 2.79758 -2.96945
lowerneck -16.0252 -6.393 -6.81025
upperneck 20.2473 -9.66381 10.7437
head 9.96318 -3.84189 3.56657
rclavicle 1.90336e-014 1.31198e-014
rhumerus 43.7836 52.403 -30.5459
rradius 61.8722
rwrist 9.96558
rhand 17.9277 -37.8114
rfingers 7.12502
rthumb 42.6 -422.197
lclavicle 1.90336e-014 1.31198e-014
lhumerus 47.8252 -56.4744 33.8617
lradius 59.1842
lwrist 10.4948
lhand -6.60928 21.0618
lfingers 7.12502
lthumb 19.2466 50.1294
rfemur -6.33547 23.8332 23.9201
rtibia 4.00413
rfoot -15.4645 -30.3235
rtoes 6.82945
lfemur -5.17875 -34.3738 -2.77112
ltibia -1.29354
lfoot -11.5927 40.8897
ltoes -0.990436
523
root 0.0108938 17.5099 8.20555 10.2272 5.73077 -9.9558
lowerback 2.36339 4.24003 6.54249
upperback -3.40097 6.02247 0.944982
thorax -4.29156 2.79627 -2.99552
lowerneck -15.9791 -6.39814 -6.82658
upperneck 20.1796 -9.67646 10.8047
head 9.93632 -3.84562 3.58912
rclavicle 1.76421e-014 4.77083e-015
rhumerus 43.7423 52.2575 -30.6718
rradius 61.868
rwrist 10.2355
rhand 18.0018 -37.7306
rfingers 7.12502
rthumb 42.6693 -422.092
lclavicle 1.76421e-014 4.77083e-015
lhumerus 47.6664 -56.3601 34.0261
lradius 59.2566
lwrist 10.7083
lhand -6.30263 21.3832
lfingers 7.12502
lthumb 19.5414 50.4211
rfemur -6.28889 23.8413 23.8843
rtibia 3.94204
rfoot -15.4843 -30.4482
rtoes 6.97146
lfemur -5.2625 -34.3363 -2.78223
ltibia -1.2623
lfoot -11.4442 40.7505
ltoes -1.24945
524
root 0.0115258 17.5099 8.20477 10.2382 5.85198 -9.92649
lowerback 2.33301 4.2476 6.49921
upperback -3.38106 6.02647 0.931679
thorax -4.25561 2.8013 -2.98206
lowerneck -15.9427 -6.39837 -6.81778
upperneck 20.0856 -9.68211 10.8524
head 9.89923 -3.84601 3.60315
rclavicle -5.13858e-014 6.75868e-015
rhumerus 43.7679 52.1358 -30.6955
rradius 61.8899
rwrist 10.4398
rhand 17.9549 -37.7755
rfingers 7.12502
rthumb 42.6254 -422.152
lclavicle -5.13858e-014 6.75868e-015
lhumerus 47.6224 -56.2623 34.0877
lradius 59.308
lwrist 10.7853
lhand -6.78408 21.1861
lfingers 7.12502
lthumb 19.0785 50.2704
rfemur -6.26726 23.8412 23.8572
rtibia 3.90347
rfoot -15.5696 -30.5517
rtoes 7.03735
lfemur -5.36855 -34.292 -2.76114
ltibia -1.2287
lfoot -11.4449 40.6098
ltoes -1.14232
525
root 0.0123347 17.5094 8.20588 10.252 5.92933 -9.92173
lowerback 2.26701 4.25775 6.43349
upperback -3.35655 6.03134 0.955174
thorax -4.20066 2.80896 -2.91523
lowerneck -15.9364 -6.39743 -6.90181
upperneck 20.0709 -9.68322 10.9582
head 9.9036 -3.84202 3.65454
rclavicle 1.99282e-014 2.10712e-014
rhumerus 43.9695 52.1124 -30.4551
rradius 62.0223
rwrist 10.3306
rhand 17.7344 -37.9918
rfingers 7.12502
rthumb 42.419 -422.44
lclavicle 1.99282e-014 2.10712e-014
lhumerus 47.5754 -56.1347 34.1958
lradius 59.2877
lwrist 10.6865
lhand -7.24709 20.9244
lfingers 7.12502
lthumb 18.6332 50.052
rfemur -6.26051 23.8387 23.8481
rtibia 3.88362
rfoot -15.6913 -30.612
rtoes 7.04664
lfemur -5.42513 -34.3212 -2.73162
ltibia -1.2309
lfoot -11.4172 40.5687
ltoes -1.00844
526
root 0.0146948 17.5087 8.20659 10.2591 5.99075 -9.93313
lowerback 2.2414 4.26771 6.4275
upperback -3.34323 6.04181 0.960875
thorax -4.17236 2.8158 -2.90355
lowerneck -15.9969 -6.41063 -7.04188
upperneck 20.1314 -9.7015 11.0914
head 9.95356 -3.843 3.72228
rclavicle 5.35725e-014 1.55052e-014
rhumerus 44.133 52.1036 -30.2449
rradius 62.2079
rwrist 10.2385
rhand 17.4718 -38.2823
rfingers 7.12502
rthumb 42.173 -422.814
lclavicle 5.35725e-014 1.55052e-014
lhumerus 47.4185 -56.0349 34.3723
lradius 59.1757
lwrist 10.252
lhand -6.91883 20.9369
lfingers 7.12502
lthumb 18.9489 50.0339
rfemur -6.25857 23.8019 23.8508
rtibia 3.86886
rfoot -15.7152 -30.6379
rtoes 7.01848
lfemur -5.4714 -34.3048 -2.70043
ltibia -1.22061
lfoot -11.3616 40.5031
ltoes -1.11464
527
root 0.016816 17.5081 8.20648 10.2555 6.06973 -9.95569
lowerback 2.22251 4.26952 6.45438
upperback -3.3219 6.04216 0.948671
thorax -4.13537 2.81666 -2.92798
lowerneck -16.0507 -6.3895 -6.9937
upperneck 20.1487 -9.67724 11.0674
head 9.96344 -3.82823 3.70852
rclavicle -5.66039e-014 -1.39149e-014
rhumerus 44.2657 52.0686 -30.1744
rradius 62.3224
rwrist 10.4072
rhand 17.0719 -38.7436
rfingers 7.12502
rthumb 41.7982 -423.401
lclavicle -5.66039e-014 -1.39149e-014
lhumerus 47.2572 -55.9724 34.4447
lradius 58.9949
lwrist 9.5113
lhand -7.31831 20.1893
lfingers 7.12502
lthumb 18.5647 49.3234
rfemur -6.25887 23.7759 23.8748
rtibia 3.87499
rfoot -15.6782 -30.6884
rtoes 7.07276
lfemur -5.54433 -34.2137 -2.64526
ltibia -1.17845
lfoot -11.2691 40.357
ltoes -1.40879
528
root 0.0179453 17.5086 8.20649 10.2594 6.15338 -9.93828
lowerback 2.19723 4.26995 6.42924
upperback -3.31292 6.03809 0.924127
thorax -4.11169 2.81614 -2.93665
lowerneck -16.0157 -6.32934 -6.84316
upperneck 20.1032 -9.60591 10.9783
head 9.92034 -3.79563 3.66254
rclavicle 3.97569e-016 -2.78299e-015
rhumerus 44.3751 52.0535 -30.1664
rradius 62.3695
rwrist 10.7214
rhand 16.416 -39.1914
rfingers 7.12502
rthumb 41.1829 -424.049
lclavicle 3.97569e-016 -2.78299e-015
lhumerus 47.0965 -55.9717 34.4703
lradius 58.8665
lwrist 8.90662
lhand -8.76245 19.0847
lfingers 7.12502
lthumb 17.1751 48.3456
rfemur -6.26194 23.8047 23.8584
rtibia 3.89291
rfoot -15.7345 -30.7776
rtoes 7.07974
lfemur -5.60316 -34.2082 -2.63396
ltibia -1.17123
lfoot -11.1418 40.27
ltoes -1.5856
529
root 0.019037 17.5094 8.2063 10.2734 6.25243 -9.91304
lowerback 2.21772 4.28372 6.39215
upperback -3.33722 6.05718 0.904294
thorax -4.14836 2.82477 -2.94054
lowerneck -15.9633 -6.30669 -6.76057
upperneck 20.0562 -9.58492 10.9481
head 9.88573 -3.78574 3.64159
rclavicle -7.02207e-014 -4.77083e-015
rhumerus 44.3348 52.0334 -30.1932
rradius 62.4435
rwrist 11.1677
rhand 15.4749 -39.4748
rfingers 7.12502
rthumb 40.2985 -424.61
lclavicle -7.02207e-014 -4.77083e-015
lhumerus 46.9639 -56.031 34.5906
lradius 58.7961
lwrist 8.55647
lhand -10.076 18.5201
lfingers 7.12502
lthumb 15.9105 47.8865
rfemur -6.26573 23.8521 23.8309
rtibia 3.90241
rfoot -15.9018 -30.8872
rtoes 7.2889
lfemur -5.66961 -34.2538 -2.62624
ltibia -1.17745
lfoot -11.0865 40.2184
ltoes -1.55944
530
root 0.0201079 17.5098 8.20557 10.2702 6.35816 -9.95247
lowerback 2.27104 4.30566 6.41114
upperback -3.35978 6.09324 0.908809
thorax -4.19763 2.83992 -2.95343
lowerneck -15.9571 -6.33483 -6.80627
upperneck 20.0442 -9.62511 11.0039
head 9.89011 -3.80216 3.66298
rclavicle 5.89397e-014 3.45885e-014
rhumerus 44.2279 51.9785 -30.2359
rradius 62.4954
rwrist 11.7569
rhand 14.355 -39.7566
rfingers 7.12502
rthumb 39.2441 -425.206
lclavicle 5.89397e-014 3.45885e-014
lhumerus 46.8736 -56.0507 34.7733
lradius 58.7102
lwrist 8.15513
lhand -10.96 18.3513
lfingers 7.12502
lthumb 15.059 47.7836
rfemur -6.25365 23.8751 23.8814
rtibia 3.89623
rfoot -16.0185 -30.9804
rtoes 7.52885
lfemur -5.743 -34.2308 -2.54002
ltibia -1.16976
lfoot -10.9771 40.136
ltoes -1.61456
